Coordinates
nRows=6
nColumns=38

# SIMM Motion File Header:
name Coordinates
datacolumns 38
datarows 6
otherdata 1
range 1.76000000000000000000 1.76500000000000010000

Units are S.I. units (second, meters, Newtons, ...)
Angles are in degrees.

endheader
time	pelvis_tilt	pelvis_list	pelvis_rotation	pelvis_tx	pelvis_ty	pelvis_tz	hip_flexion_r	hip_adduction_r	hip_rotation_r	knee_angle_r	ankle_angle_r	subtalar_angle_r	mtp_angle_r	hip_flexion_l	hip_adduction_l	hip_rotation_l	knee_angle_l	ankle_angle_l	subtalar_angle_l	mtp_angle_l	lumbar_extension	lumbar_bending	lumbar_rotation	arm_flex_r	arm_add_r	arm_rot_r	elbow_flex_r	pro_sup_r	wrist_flex_r	wrist_dev_r	arm_flex_l	arm_add_l	arm_rot_l	elbow_flex_l	pro_sup_l	wrist_flex_l	wrist_dev_l
      1.76000000000000000000	     -7.50779116808498160000	      1.82320372276539970000	     -3.76657293002587500000	      0.72843585260532262000	      0.98138102612982747000	     -0.33181672514905092000	      2.75717666434733740000	      2.25870297394028660000	     -2.90148241954493180000	    -31.61821645240019800000	      7.35561876346788330000	      0.00000000000001500950	      0.00000000000002374947	     49.25618618613686600000	      0.75499647669262293000	     -6.02516058522782320000	   -118.27121220842720000000	     -3.24849350523746110000	     -0.00000000000001220547	      0.00000000000000184423	     -4.22946771573128100000	      2.27938373847297360000	      8.85309219188311760000	     -3.67219630855190800000	    -22.92972878823919900000	     -4.48798912260411150000	     78.55959138080196200000	     87.64831876133733600000	      0.00000000000000448325	      0.00000000000001139598	    -24.15531644091182900000	    -39.52323485251459100000	     33.98924852832129100000	     72.08492668197268900000	     77.78333920796653400000	     -0.00000000000000209641	      0.00000000000000098643
      1.76100000000000010000	     -7.50662480715912390000	      1.94698375062078280000	     -3.75636421045926740000	      0.72873560906513046000	      0.98206637120506002000	     -0.33174286711239032000	      2.31356201790605050000	      2.08604545460037420000	     -2.93424173561998100000	    -31.29801213344486400000	      6.72638837853290020000	      0.00000000000001528571	      0.00000000000002425655	     49.48170306397384600000	      0.87967876077025575000	     -6.07994244502156890000	   -117.74861782184925000000	     -3.18472539688080270000	     -0.00000000000001231794	      0.00000000000000174818	     -4.16601297291581310000	      2.10698200751116850000	      9.00141953621470850000	     -3.67623392748478350000	    -22.86404051566080000000	     -4.58308504756927880000	     78.90292356022278900000	     87.62090511896779800000	      0.00000000000000452163	      0.00000000000001157784	    -24.46718184721891700000	    -39.69266971927724800000	     33.96477901219281400000	     72.35590986790816700000	     77.54440528077260800000	     -0.00000000000000216350	      0.00000000000000097523
      1.76200000000000000000	     -7.50878669815737250000	      2.06745601519808850000	     -3.74520363550512150000	      0.72904158591506263000	      0.98275035698463487000	     -0.33166987674956233000	      1.87385915627120500000	      1.91717809271198440000	     -2.96950000363273900000	    -30.97404453276589800000	      6.08209412014753960000	      0.00000000000001558602	      0.00000000000002467578	     49.70471350507690300000	      1.00033579381574840000	     -6.13167781790708850000	   -117.22012879017691000000	     -3.12430995887404930000	     -0.00000000000001243106	      0.00000000000000166606	     -4.09812420641990550000	      1.93848777754411760000	      9.14862752596891230000	     -3.68417919505694250000	    -22.79951971650179500000	     -4.67584010909403420000	     79.24753331751320200000	     87.58809607526758600000	      0.00000000000000456096	      0.00000000000001175950	    -24.78235001941918000000	    -39.85945076147363200000	     33.93176912951054200000	     72.62624240442066500000	     77.31605700860890800000	     -0.00000000000000223145	      0.00000000000000095201
      1.76300000000000010000	     -7.51447646627074570000	      2.18449965884108050000	     -3.73302219965249280000	      0.72935333832601690000	      0.98343217716423470000	     -0.33159790985040560000	      1.43847829661260950000	      1.75226531182604690000	     -3.00734298080699200000	    -30.64662206837770200000	      5.42339608689785900000	      0.00000000000001588875	      0.00000000000002511313	     49.92552331411517500000	      1.11695891403516920000	     -6.18017256574014960000	   -116.68597269273569000000	     -3.06732966238407250000	     -0.00000000000001254815	      0.00000000000000158800	     -4.02562095585152150000	      1.77406452268452200000	      9.29464348222653670000	     -3.69596620304652210000	    -22.73620534381475300000	     -4.76622869197298640000	     79.59327609828230300000	     87.55018230559741700000	      0.00000000000000460226	      0.00000000000001193988	    -25.10080492512209100000	    -40.02350490837971400000	     33.89017467634419500000	     72.89581125432326300000	     77.09830716021201600000	     -0.00000000000000230235	      0.00000000000000093431
      1.76400000000000000000	     -7.52386973649671820000	      2.29800308573343460000	     -3.71975851131561000000	      0.72967042161669204000	      0.98411106962402495000	     -0.33152710759540888000	      1.00780658297706770000	      1.59146055243221230000	     -3.04785172769432760000	    -30.31607466806377000000	      4.75101242746754960000	      0.00000000000001617687	      0.00000000000002554529	     50.14440834327889700000	      1.22954426331025290000	     -6.22525068039141870000	   -116.14636630268069000000	     -3.01385874499558470000	     -0.00000000000001266882	      0.00000000000000151883	     -3.94835040697444220000	      1.61386160048724280000	      9.43939968744143520000	     -3.71152269422825270000	    -22.67413291702352400000	     -4.85422791824697790000	     79.94000406623908400000	     87.50745735917222100000	      0.00000000000000464536	      0.00000000000001211961	    -25.42251968004190500000	    -40.18476642843177900000	     33.83997116258282700000	     73.16451205686230700000	     76.89112307057280300000	     -0.00000000000000237553	      0.00000000000000092494
      1.76500000000000010000	     -7.53711984032481030000	      2.40786418233999820000	     -3.70535841371195400000	      0.72999239145375316000	      0.98478631405126360000	     -0.33145759678738151000	      0.58220971852436831000	      1.43490596052777850000	     -3.09110262897360590000	    -29.98275369915417300000	      4.06571839924243590000	      0.00000000000001649307	      0.00000000000002592720	     50.36161647279336500000	      1.33809287689879140000	     -6.26675419916319050000	   -115.60151554535742000000	     -2.96396302386719100000	     -0.00000000000001278835	      0.00000000000000143604	     -3.86618525370932000000	      1.45801413735687090000	      9.58283291557587270000	     -3.73077067373240470000	    -22.61333436290394900000	     -4.93981773543948940000	     80.28756624370946300000	     87.46021691880538600000	      0.00000000000000468976	      0.00000000000001230004	    -25.74745702542970000000	    -40.34317671320295800000	     33.78115282189725800000	     73.43224876292730100000	     76.69442907027919900000	     -0.00000000000000244707	      0.00000000000000091241
